<svg width="27" height="21" viewBox="0 0 27 21" fill="none" xmlns="http://www.w3.org/2000/svg">
<path d="M18.8265 0.066247C18.6265 -0.0145666 18.3999 -0.0217169 18.1942 0.0463019C17.9886 0.114321 17.8201 0.252201 17.7241 0.430908L7.77705 19.9422C7.73156 20.0306 7.70574 20.1264 7.70109 20.2239C7.69643 20.3214 7.71303 20.4188 7.74992 20.5105C7.78682 20.6021 7.84328 20.6863 7.91608 20.7581C7.98887 20.8298 8.07655 20.8878 8.17408 20.9287C8.25002 20.9619 8.33129 20.984 8.41484 20.994C8.58723 21.0141 8.76219 20.9836 8.91416 20.9069C9.06613 20.8303 9.18716 20.7115 9.2596 20.5679L19.2235 1.05659C19.3089 0.87665 19.3154 0.673839 19.2415 0.489712C19.1677 0.305585 19.0192 0.154083 18.8265 0.066247ZM8.59646 11.9427C8.70175 11.7709 8.73047 11.5689 8.67671 11.3784C8.61758 11.1881 8.47989 11.0258 8.29235 10.9255L3.07176 8.19628C3.00446 8.16282 2.94847 8.11335 2.90977 8.05316C2.87108 7.99298 2.85115 7.92435 2.85212 7.85465C2.85073 7.78533 2.87003 7.71697 2.90796 7.65682C2.94588 7.59667 3.00103 7.54698 3.06753 7.51302L8.30502 4.69169C8.48863 4.58822 8.62165 4.42476 8.67671 4.2349C8.70337 4.14064 8.70934 4.04252 8.69425 3.94617C8.67918 3.84981 8.64335 3.75709 8.58883 3.67332C8.5343 3.58955 8.46215 3.51636 8.37649 3.45794C8.29084 3.39952 8.19335 3.35701 8.08961 3.33285C8.02249 3.31454 7.95272 3.30548 7.88264 3.30598C7.73366 3.30586 7.58752 3.34305 7.46027 3.41346L0.406551 7.22897C0.28291 7.29406 0.180268 7.38755 0.108914 7.50006C0.0375594 7.61257 0 7.74014 0 7.87C0 7.99986 0.0375594 8.12744 0.108914 8.23995C0.180268 8.35246 0.28291 8.44594 0.406551 8.51104L7.48983 12.2152C7.6782 12.3046 7.89671 12.3262 8.10181 12.2757C8.30692 12.2252 8.48354 12.1063 8.59646 11.9427ZM26.6151 12.6029L19.5318 8.78741C19.4035 8.71976 19.2578 8.68401 19.1095 8.68377C18.9306 8.68411 18.7569 8.73759 18.6146 8.83605C18.4724 8.93452 18.3695 9.07257 18.3216 9.22914C18.2738 9.38571 18.2836 9.55221 18.3496 9.70325C18.4155 9.85428 18.5341 9.98155 18.6871 10.0656L23.9246 12.887C23.9949 12.9188 24.054 12.9678 24.0953 13.0285C24.1366 13.0892 24.1585 13.1592 24.1585 13.2305C24.1585 13.3019 24.1366 13.3719 24.0953 13.4325C24.054 13.4932 23.9949 13.5422 23.9246 13.5741L18.7082 16.3033C18.5204 16.4014 18.383 16.563 18.326 16.7529C18.2691 16.9428 18.2971 17.1455 18.4041 17.3167C18.5166 17.4839 18.6952 17.6056 18.9033 17.657C19.1114 17.7084 19.3333 17.6855 19.5234 17.593L26.594 13.8888C26.7176 13.8232 26.8201 13.7293 26.8913 13.6165C26.9625 13.5037 27 13.3759 27 13.2459C27 13.1158 26.9625 12.988 26.8913 12.8752C26.8201 12.7624 26.7176 12.6685 26.594 12.6029H26.6151Z" fill="white"/>
</svg>
