<svg width="16" height="16" viewBox="0 0 16 16" fill="none" xmlns="http://www.w3.org/2000/svg">
<g clip-path="url(#clip0_39_723)">
<path d="M9.04481 13.4229C10.7568 13.4229 12.3987 12.7428 13.6093 11.5322C14.8198 10.3217 15.4999 8.67978 15.4999 6.96779C15.4999 5.25579 14.8198 3.61391 13.6093 2.40335C12.3987 1.19278 10.7568 0.512695 9.04481 0.512695C7.33282 0.512695 5.69094 1.19278 4.48037 2.40335C3.26981 3.61391 2.58972 5.25579 2.58972 6.96779C2.58972 8.67978 3.26981 10.3217 4.48037 11.5322C5.69094 12.7428 7.33282 13.4229 9.04481 13.4229Z" fill="#A8D0FF"/>
<path d="M6.95509 2.58984C7.80279 2.58984 8.64218 2.75681 9.42535 3.08121C10.2085 3.40561 10.9201 3.88109 11.5195 4.4805C12.1189 5.07991 12.5944 5.79151 12.9188 6.57468C13.2432 7.35785 13.4102 8.19724 13.4102 9.04494C13.4102 10.7569 12.7301 12.3988 11.5195 13.6094C10.309 14.8199 8.66709 15.5 6.95509 15.5C5.24309 15.5 3.60122 14.8199 2.39065 13.6094C1.18009 12.3988 0.5 10.7569 0.5 9.04494C0.5 7.33294 1.18009 5.69106 2.39065 4.4805C3.60122 3.26993 5.24309 2.58984 6.95509 2.58984Z" fill="#00A1FF"/>
<path d="M9.41926 5.97076L6.02193 8.47958L4.44962 7.79568C3.44363 7.28125 2.53027 8.11392 3.11634 9.12897L4.9102 11.8114C5.40111 12.4993 6.57615 12.5381 7.13198 11.8114L10.7509 7.30403C11.4682 6.33273 10.3377 5.27646 9.41926 5.97076Z" fill="white"/>
</g>
<defs>
<clipPath id="clip0_39_723">
<rect width="16" height="16" fill="white"/>
</clipPath>
</defs>
</svg>
