<svg width="24" height="24" viewBox="0 0 24 24" fill="none" xmlns="http://www.w3.org/2000/svg">
<path d="M10.2004 16.4C10.0691 16.4002 9.939 16.3743 9.81767 16.3241C9.69634 16.2738 9.58615 16.2 9.49341 16.107L6.29341 12.907C6.11125 12.7184 6.01045 12.4658 6.01273 12.2036C6.01501 11.9414 6.12018 11.6906 6.30559 11.5052C6.491 11.3198 6.74181 11.2146 7.00401 11.2123C7.2662 11.2101 7.5188 11.3109 7.70741 11.493L10.2004 13.986L16.2934 7.89302C16.482 7.71086 16.7346 7.61006 16.9968 7.61234C17.259 7.61462 17.5098 7.71979 17.6952 7.9052C17.8806 8.09061 17.9858 8.34142 17.9881 8.60361C17.9904 8.86581 17.8896 9.11841 17.7074 9.30702L10.9074 16.107C10.8147 16.2 10.7045 16.2738 10.5831 16.3241C10.4618 16.3743 10.3317 16.4002 10.2004 16.4Z" fill="#00A3FF"/>
</svg>
