<svg width="86" height="83" viewBox="0 0 86 83" fill="none" xmlns="http://www.w3.org/2000/svg">
<path d="M1.48276 0C1.08951 0 0.712361 0.156154 0.43429 0.43411C0.156219 0.712066 0 1.08905 0 1.48214V66.6964C0 67.0895 0.156219 67.4665 0.43429 67.7445C0.712361 68.0224 1.08951 68.1786 1.48276 68.1786H14.0862V65.2143H2.96552V14.8214H74.1379V45.1639C74.1676 45.3061 74.2388 45.4306 74.2566 45.5759C75.078 44.903 76.0952 44.568 77.1034 44.5443V1.48214C77.1034 1.08905 76.9472 0.712066 76.6692 0.43411C76.3911 0.156154 76.0139 0 75.6207 0H1.48276ZM2.96552 2.96429H74.1379V11.8571H2.96552V2.96429ZM7.41379 5.92857C7.02054 5.92857 6.6434 6.08473 6.36532 6.36268C6.08725 6.64064 5.93103 7.01763 5.93103 7.41071C5.93103 7.8038 6.08725 8.18079 6.36532 8.45875C6.6434 8.7367 7.02054 8.89286 7.41379 8.89286C7.80705 8.89286 8.18419 8.7367 8.46226 8.45875C8.74033 8.18079 8.89655 7.8038 8.89655 7.41071C8.89655 7.01763 8.74033 6.64064 8.46226 6.36268C8.18419 6.08473 7.80705 5.92857 7.41379 5.92857ZM13.3448 5.92857C12.9516 5.92857 12.5744 6.08473 12.2964 6.36268C12.0183 6.64064 11.8621 7.01763 11.8621 7.41071C11.8621 7.8038 12.0183 8.18079 12.2964 8.45875C12.5744 8.7367 12.9516 8.89286 13.3448 8.89286C13.7381 8.89286 14.1152 8.7367 14.3933 8.45875C14.6714 8.18079 14.8276 7.8038 14.8276 7.41071C14.8276 7.01763 14.6714 6.64064 14.3933 6.36268C14.1152 6.08473 13.7381 5.92857 13.3448 5.92857ZM19.2759 5.92857C18.8826 5.92857 18.5055 6.08473 18.2274 6.36268C17.9493 6.64064 17.7931 7.01763 17.7931 7.41071C17.7931 7.8038 17.9493 8.18079 18.2274 8.45875C18.5055 8.7367 18.8826 8.89286 19.2759 8.89286C19.6691 8.89286 20.0463 8.7367 20.3243 8.45875C20.6024 8.18079 20.7586 7.8038 20.7586 7.41071C20.7586 7.01763 20.6024 6.64064 20.3243 6.36268C20.0463 6.08473 19.6691 5.92857 19.2759 5.92857ZM46.0248 20.75C45.9783 20.7498 45.9318 20.7518 45.8854 20.7559C45.6448 20.7692 45.411 20.8409 45.2043 20.9649C44.9976 21.0889 44.8242 21.2613 44.6992 21.4674L29.8924 45.1461C29.7892 45.3111 29.7195 45.4949 29.6874 45.6868C29.6552 45.8788 29.6612 46.0752 29.705 46.2649C29.7488 46.4545 29.8295 46.6337 29.9426 46.7922C30.0556 46.9506 30.1988 47.0853 30.3639 47.1885C30.5291 47.2916 30.7129 47.3613 30.9049 47.3934C31.097 47.4255 31.2935 47.4196 31.4832 47.3758C31.6729 47.332 31.8522 47.2513 32.0107 47.1383C32.1693 47.0253 32.304 46.8822 32.4072 46.7171L47.211 23.0355C47.353 22.8159 47.4344 22.5626 47.4468 22.3015C47.4592 22.0403 47.4023 21.7805 47.2819 21.5484C47.1614 21.3163 46.9817 21.1202 46.7609 20.98C46.5401 20.8398 46.2862 20.7604 46.0248 20.75ZM25.1594 23.7143C24.7747 23.7268 24.41 23.8884 24.1423 24.1649L15.3554 32.954C15.2365 33.0558 15.1344 33.1759 15.053 33.3097C15.0319 33.3415 15.0122 33.3741 14.9937 33.4075L14.9907 33.4105C14.9845 33.4242 14.9786 33.438 14.9729 33.452C14.9604 33.4754 14.9485 33.4991 14.9373 33.5231C14.9267 33.5495 14.9168 33.5762 14.9077 33.6031C14.9002 33.6257 14.8933 33.6484 14.8869 33.6713C14.8805 33.6929 14.8745 33.7147 14.8691 33.7365C14.8647 33.7562 14.8608 33.776 14.8572 33.7958C14.8551 33.8086 14.8531 33.8215 14.8513 33.8344C14.8034 34.0966 14.8272 34.3669 14.9201 34.6168C15.013 34.8667 15.1716 35.0869 15.3792 35.2542L24.1423 44.0196C24.2791 44.1612 24.4427 44.2741 24.6236 44.3518C24.8045 44.4295 24.999 44.4704 25.1959 44.4721C25.3928 44.4738 25.588 44.4363 25.7703 44.3618C25.9525 44.2872 26.1181 44.1772 26.2573 44.038C26.3965 43.8989 26.5066 43.7334 26.5811 43.5512C26.6557 43.3691 26.6932 43.1739 26.6915 42.9771C26.6898 42.7803 26.6489 42.5858 26.5712 42.405C26.4935 42.2242 26.3805 42.0606 26.2389 41.9239L18.407 34.0893L26.2359 26.2636C26.4519 26.0558 26.5999 25.7874 26.6602 25.4938C26.7205 25.2003 26.6904 24.8954 26.5738 24.6193C26.4572 24.3432 26.2597 24.1089 26.0072 23.9473C25.7547 23.7858 25.4591 23.7045 25.1594 23.7143ZM51.8966 23.7143C51.6007 23.7137 51.3115 23.8016 51.066 23.9666C50.8205 24.1317 50.63 24.3663 50.5191 24.6405C50.4081 24.9146 50.3817 25.2156 50.4433 25.5049C50.5048 25.7941 50.6515 26.0583 50.8646 26.2636L58.6965 34.0893L50.8675 41.9239C50.7203 42.0591 50.602 42.2227 50.5197 42.4047C50.4374 42.5868 50.3928 42.7836 50.3885 42.9834C50.3842 43.1832 50.4204 43.3817 50.4948 43.5671C50.5693 43.7526 50.6804 43.921 50.8217 44.0624C50.9629 44.2038 51.1313 44.3152 51.3167 44.3899C51.5021 44.4645 51.7007 44.501 51.9006 44.497C52.1004 44.493 52.2974 44.4486 52.4796 44.3666C52.6619 44.2846 52.8257 44.1666 52.9612 44.0196L61.7421 35.2365C61.9023 35.1034 62.0326 34.9381 62.1247 34.7512C62.2167 34.5644 62.2683 34.3604 62.2761 34.1523C62.284 33.9442 62.2478 33.7368 62.1701 33.5436C62.0924 33.3504 61.9749 33.1758 61.8251 33.031L61.8192 33.0251L52.9612 24.1649C52.8229 24.0223 52.6575 23.909 52.4746 23.8316C52.2917 23.7542 52.0952 23.7143 51.8966 23.7143ZM63.4858 44.4643C63.0925 44.4643 62.7154 44.6204 62.4373 44.8984C62.1593 45.1763 62.003 45.5533 62.003 45.9464V48.5995C61.0837 48.884 60.2 49.2427 59.3459 49.6874L57.4777 47.8288C57.1997 47.5518 56.8233 47.3963 56.4308 47.3963C56.0384 47.3963 55.6619 47.5518 55.384 47.8288L50.8082 52.3937C50.6701 52.5314 50.5606 52.695 50.4858 52.875C50.4111 53.0551 50.3726 53.2482 50.3726 53.4431C50.3726 53.6381 50.4111 53.8311 50.4858 54.0112C50.5606 54.1912 50.6701 54.3548 50.8082 54.4925L52.6765 56.36C52.2317 57.2166 51.858 58.1 51.5733 59.0189H48.931C48.5378 59.0189 48.1606 59.1751 47.8826 59.453C47.6045 59.731 47.4483 60.108 47.4483 60.5011V66.9691C47.4483 67.3622 47.6045 67.7392 47.8826 68.0172C48.1606 68.2951 48.5378 68.4513 48.931 68.4513H51.5792C51.8639 69.3702 52.2257 70.2595 52.6735 71.1132L50.8052 72.9807C50.5282 73.2585 50.3726 73.6348 50.3726 74.0271C50.3726 74.4194 50.5282 74.7957 50.8052 75.0735L55.384 79.6415C55.6621 79.9193 56.0391 80.0754 56.4323 80.0754C56.8255 80.0754 57.2026 79.9193 57.4806 79.6415L59.3489 77.7769C60.203 78.2216 61.0867 78.5862 62.003 78.8737V81.5179C62.003 81.9109 62.1593 82.2879 62.4373 82.5659C62.7154 82.8438 63.0925 83 63.4858 83H69.9625C70.3557 83 70.7329 82.8438 71.0109 82.5659C71.289 82.2879 71.4452 81.9109 71.4452 81.5179V78.8708C72.3645 78.5862 73.2483 78.2275 74.1023 77.7829L75.9706 79.6415C76.2486 79.9184 76.625 80.0739 77.0174 80.0739C77.4099 80.0739 77.7863 79.9184 78.0643 79.6415L82.6401 75.0765C82.7782 74.9388 82.8877 74.7752 82.9625 74.5952C83.0372 74.4151 83.0757 74.2221 83.0757 74.0271C83.0757 73.8321 83.0372 73.6391 82.9625 73.459C82.8877 73.279 82.7782 73.1154 82.6401 72.9777L80.7718 71.1102C81.2166 70.2536 81.5903 69.3702 81.875 68.4513H84.5172C84.9105 68.4513 85.2876 68.2951 85.5657 68.0172C85.8438 67.7392 86 67.3622 86 66.9691V60.5011C86 60.108 85.8438 59.731 85.5657 59.453C85.2876 59.1751 84.9105 59.0189 84.5172 59.0189H81.869C81.5852 58.1005 81.219 57.2096 80.7748 56.357L82.643 54.4895C82.9201 54.2117 83.0757 53.8354 83.0757 53.4431C83.0757 53.0508 82.9201 52.6745 82.643 52.3967L78.0643 47.8288C77.7862 47.5509 77.4091 47.3948 77.016 47.3948C76.6228 47.3948 76.2457 47.5509 75.9677 47.8288L74.0994 49.6933C73.2495 49.2486 72.3612 48.8815 71.4452 48.5965V45.9464C71.4452 45.5533 71.289 45.1763 71.0109 44.8984C70.7329 44.6204 70.3557 44.4643 69.9625 44.4643H63.4858ZM64.9686 47.4286H68.4797V49.5599C68.4792 49.8956 68.5928 50.2216 68.8019 50.4844C69.0109 50.7472 69.303 50.9313 69.6303 51.0065C71.0657 51.3325 72.4298 51.8987 73.6753 52.6783C73.9596 52.8565 74.296 52.9329 74.6294 52.8952C74.9628 52.8575 75.2736 52.7079 75.511 52.4708L77.0174 50.9709L79.4966 53.4431L77.9961 54.943C77.7603 55.1799 77.6115 55.4894 77.5738 55.8214C77.5361 56.1534 77.6118 56.4884 77.7885 56.772C78.5655 58.02 79.1259 59.3924 79.4492 60.8271C79.5232 61.1554 79.7069 61.4488 79.9699 61.6589C80.2329 61.869 80.5597 61.9834 80.8963 61.9832H83.0345V65.487H80.9023C80.5664 65.4865 80.2403 65.6001 79.9774 65.809C79.7145 66.018 79.5303 66.3099 79.4551 66.6371C79.1289 68.0719 78.5655 69.4414 77.7826 70.6864C77.6043 70.9706 77.5278 71.3068 77.5655 71.6401C77.6033 71.9734 77.7529 72.284 77.9901 72.5212L79.4966 74.0271L77.0174 76.4993L75.5169 75.0053C75.28 74.7696 74.9703 74.6209 74.6382 74.5832C74.306 74.5456 73.9709 74.6212 73.6872 74.7978C72.4387 75.5745 71.0657 76.1347 69.6303 76.4578C69.304 76.5328 69.0126 76.716 68.8037 76.9776C68.5948 77.2392 68.4806 77.5637 68.4797 77.8985V80.0357H64.9686V77.9044C64.9677 77.5697 64.8535 77.2451 64.6446 76.9835C64.4356 76.7219 64.1443 76.5387 63.8179 76.4637C62.3849 76.1372 61.0173 75.5709 59.773 74.7889C59.4886 74.6108 59.1523 74.5343 58.8189 74.572C58.4854 74.6097 58.1747 74.7593 57.9373 74.9964L56.4308 76.4993L53.9517 74.0271L55.4522 72.5272C55.6901 72.2897 55.8403 71.9785 55.878 71.6446C55.9157 71.3106 55.8388 70.9738 55.6598 70.6893C54.8825 69.4435 54.321 68.0756 53.9991 66.6431C53.925 66.3148 53.7414 66.0214 53.4784 65.8113C53.2153 65.6012 52.8886 65.4868 52.5519 65.487H50.4138V61.9832H52.546C52.8823 61.9835 53.2087 61.8696 53.4717 61.66C53.7346 61.4505 53.9185 61.1579 53.9932 60.8301C54.3194 59.3984 54.8858 58.0289 55.6657 56.7839C55.8439 56.4997 55.9204 56.1634 55.8827 55.8301C55.845 55.4969 55.6953 55.1862 55.4581 54.949L53.9517 53.4431L56.4308 50.9709L57.9314 52.4649C58.1683 52.7006 58.478 52.8493 58.8101 52.887C59.1422 52.9246 59.4774 52.849 59.7611 52.6724C61.0096 51.8957 62.3826 51.3296 63.8179 51.0065C64.1433 50.9317 64.4339 50.7494 64.6427 50.489C64.8515 50.2287 64.9664 49.9055 64.9686 49.5717V47.4286ZM28.5431 52.5568C28.1499 52.5568 27.7727 52.7129 27.4946 52.9909C27.2166 53.2688 27.0603 53.6458 27.0603 54.0389V55.5566C26.6333 55.7049 26.2152 55.8709 25.8089 56.0665L24.7383 54.9994C24.4603 54.7215 24.0832 54.5654 23.69 54.5654C23.2969 54.5654 22.9198 54.7215 22.6417 54.9994L19.4983 58.1445C19.2203 58.4224 19.0641 58.7993 19.0641 59.1923C19.0641 59.5853 19.2203 59.9623 19.4983 60.2402L20.5659 61.3133C20.3684 61.7187 20.1951 62.1354 20.0469 62.5612H18.5345C18.1412 62.5612 17.7641 62.7174 17.486 62.9954C17.2079 63.2733 17.0517 63.6503 17.0517 64.0434V68.4898C17.0517 68.8829 17.2079 69.2599 17.486 69.5378C17.7641 69.8158 18.1412 69.972 18.5345 69.972H20.0528C20.2011 70.4018 20.3642 70.8168 20.5629 71.2229L19.4953 72.296C19.2173 72.5739 19.0612 72.9508 19.0612 73.3438C19.0612 73.7368 19.2173 74.1138 19.4953 74.3917L22.6388 77.5339C22.7765 77.6719 22.9401 77.7814 23.1203 77.8561C23.3004 77.9308 23.4935 77.9693 23.6886 77.9693C23.8836 77.9693 24.0767 77.9308 24.2568 77.8561C24.437 77.7814 24.6006 77.6719 24.7383 77.5339L25.8089 76.4637C26.2181 76.6624 26.6333 76.8313 27.0603 76.9795V78.4943C27.0603 78.8874 27.2166 79.2644 27.4946 79.5423C27.7727 79.8203 28.1499 79.9764 28.5431 79.9764H32.9914C33.3846 79.9764 33.7618 79.8203 34.0398 79.5423C34.3179 79.2644 34.4741 78.8874 34.4741 78.4943V76.9795C34.9009 76.8319 35.3187 76.6596 35.7256 76.4637L36.7961 77.5339C37.0742 77.8117 37.4513 77.9678 37.8444 77.9678C38.2376 77.9678 38.6147 77.8117 38.8928 77.5339L42.0362 74.3917C42.1752 74.2539 42.2855 74.09 42.3608 73.9094C42.436 73.7288 42.4748 73.535 42.4748 73.3394C42.4748 73.1437 42.436 72.95 42.3608 72.7694C42.2855 72.5888 42.1752 72.4249 42.0362 72.2871L40.9716 71.2229C41.1703 70.8168 41.3393 70.4018 41.4876 69.972H43C43.3933 69.972 43.7704 69.8158 44.0485 69.5378C44.3265 69.2599 44.4828 68.8829 44.4828 68.4898V64.0434C44.4828 63.6503 44.3265 63.2733 44.0485 62.9954C43.7704 62.7174 43.3933 62.5612 43 62.5612H41.4817C41.3344 62.1355 41.1621 61.7187 40.9657 61.3133L42.0392 60.2402C42.3171 59.9623 42.4733 59.5853 42.4733 59.1923C42.4733 58.7993 42.3171 58.4224 42.0392 58.1445L38.8957 55.0023C38.758 54.8643 38.5944 54.7548 38.4142 54.6801C38.2341 54.6053 38.041 54.5669 37.8459 54.5669C37.6509 54.5669 37.4578 54.6053 37.2776 54.6801C37.0975 54.7548 36.9339 54.8643 36.7961 55.0023L35.7256 56.0724C35.3193 55.8736 34.9014 55.6993 34.4741 55.5507V54.0389C34.4741 53.6458 34.3179 53.2688 34.0398 52.9909C33.7618 52.7129 33.3846 52.5568 32.9914 52.5568H28.5431ZM30.0259 55.5211H31.5086V56.523C31.509 56.8586 31.6233 57.1842 31.8328 57.4465C32.0424 57.7087 32.3348 57.8921 32.6622 57.9666C33.5963 58.18 34.4919 58.5506 35.3015 59.0604C35.5861 59.2393 35.9231 59.3162 36.2572 59.2785C36.5913 59.2408 36.9026 59.0907 37.1401 58.8529L37.8459 58.1445L38.8928 59.1938L38.187 59.8934C37.949 60.1308 37.7989 60.442 37.7612 60.776C37.7235 61.1099 37.8004 61.4468 37.9794 61.7313C38.4835 62.5435 38.8572 63.4327 39.0677 64.3695C39.1416 64.6968 39.3243 64.9894 39.5861 65.1994C39.8479 65.4094 40.1733 65.5244 40.509 65.5255H41.5172V67.0077H40.5149C40.1782 67.0075 39.8515 67.1219 39.5885 67.332C39.3254 67.5421 39.1418 67.8354 39.0677 68.1637C38.8557 69.0961 38.4877 69.986 37.9794 70.796C37.8004 71.0805 37.7235 71.4174 37.7612 71.7513C37.7989 72.0852 37.949 72.3964 38.187 72.6339L38.8928 73.3453L37.8459 74.3828L37.1431 73.6833C36.9058 73.4461 36.595 73.2965 36.2616 73.2588C35.9281 73.2211 35.5918 73.2976 35.3074 73.4757C34.4948 73.9822 33.6025 74.3479 32.6681 74.5577C32.3386 74.6313 32.0441 74.815 31.8333 75.0786C31.6225 75.3422 31.5079 75.6698 31.5086 76.0072V77.0151H30.0259V76.0132C30.0269 75.6765 29.9132 75.3496 29.7035 75.0861C29.4938 74.8226 29.2007 74.6384 28.8723 74.5636C27.9377 74.3515 27.0455 73.9838 26.233 73.4757C25.949 73.2961 25.6124 73.2182 25.2784 73.2548C24.9443 73.2915 24.6326 73.4404 24.3943 73.6773L23.6886 74.3858L22.6417 73.3364L23.3475 72.6309C23.5833 72.3941 23.7321 72.0846 23.7698 71.7526C23.8075 71.4206 23.7318 71.0856 23.5551 70.802C23.0466 69.9899 22.6787 69.098 22.4668 68.1637C22.3935 67.8359 22.211 67.5426 21.9491 67.332C21.6873 67.1215 21.3616 67.006 21.0255 67.0047H20.0172V65.5226H21.0196C21.3563 65.5227 21.683 65.4084 21.946 65.1982C22.209 64.9881 22.3927 64.6948 22.4668 64.3665C22.6803 63.4357 23.048 62.5405 23.5551 61.7283C23.7333 61.4441 23.8098 61.1079 23.7721 60.7746C23.7344 60.4413 23.5847 60.1306 23.3475 59.8934L22.6417 59.1879L23.6886 58.1385L24.3914 58.8411C24.6287 59.0782 24.9395 59.2278 25.2729 59.2655C25.6064 59.3032 25.9427 59.2267 26.227 59.0486C27.0396 58.5417 27.9322 58.1771 28.8663 57.9666C29.1948 57.8933 29.4886 57.7104 29.6993 57.448C29.9101 57.1857 30.0252 56.8594 30.0259 56.523V55.5211ZM66.7241 56.3274C64.7613 56.3352 62.881 57.1176 61.4925 58.5044C60.104 59.8912 59.3197 61.7701 59.3103 63.7321C59.3182 65.6952 60.1018 67.5756 61.4904 68.9637C62.8791 70.3518 64.7603 71.135 66.7241 71.1429C68.688 71.135 70.5692 70.3518 71.9579 68.9637C73.3465 67.5756 74.1301 65.6952 74.1379 63.7321C74.1286 61.7701 73.3443 59.8912 71.9558 58.5044C70.5673 57.1176 68.687 56.3352 66.7241 56.3274ZM66.7241 59.2916C69.1737 59.2916 71.1724 61.2836 71.1724 63.7321C71.1724 66.1806 69.1737 68.1786 66.7241 68.1786C64.2746 68.1786 62.2759 66.1806 62.2759 63.7321C62.2759 61.2836 64.2746 59.2916 66.7241 59.2916ZM30.7672 61.3874C28.0894 61.3874 25.886 63.5899 25.886 66.2666C25.886 68.9463 28.0894 71.1429 30.7672 71.1429C33.4451 71.1429 35.6485 68.9434 35.6485 66.2666C35.6485 63.5899 33.4451 61.3874 30.7672 61.3874ZM30.7672 64.3517C31.2749 64.3517 31.7618 64.5533 32.1208 64.9121C32.4798 65.271 32.6815 65.7576 32.6815 66.2651C32.6815 66.7726 32.4798 67.2593 32.1208 67.6181C31.7618 67.977 31.2749 68.1786 30.7672 68.1786C30.2596 68.1786 29.7727 67.977 29.4137 67.6181C29.0547 67.2593 28.853 66.7726 28.853 66.2651C28.853 65.7576 29.0547 65.271 29.4137 64.9121C29.7727 64.5533 30.2596 64.3517 30.7672 64.3517Z" fill="url(#paint0_linear_75_984)"/>
<defs>
<linearGradient id="paint0_linear_75_984" x1="0" y1="41.5" x2="77.1035" y2="41.5" gradientUnits="userSpaceOnUse">
<stop stop-color="#0000D4"/>
<stop offset="1" stop-color="#000B6C"/>
</linearGradient>
</defs>
</svg>
