<svg width="88" height="88" viewBox="0 0 88 88" fill="none" xmlns="http://www.w3.org/2000/svg">
<path fill-rule="evenodd" clip-rule="evenodd" d="M44 5.22605e-06C36.6315 0.00293856 29.392 1.88321 22.9387 5.4208C22.6008 5.6059 22.3028 5.85572 22.0615 6.15601C21.8202 6.45629 21.6404 6.80116 21.5324 7.17093C21.4244 7.54069 21.3903 7.9281 21.432 8.31105C21.4738 8.694 21.5905 9.06497 21.7756 9.4028C21.9607 9.74063 22.2105 10.0387 22.5108 10.28C22.8111 10.5213 23.156 10.701 23.5257 10.809C23.8955 10.917 24.2829 10.9512 24.6658 10.9094C25.0488 10.8677 25.4198 10.751 25.7576 10.5659C31.3475 7.49288 37.6211 5.8768 44 5.86667C65.0907 5.85494 82.1333 22.9035 82.1333 44C82.1333 65.0965 65.0965 82.1333 44 82.1333C22.9035 82.1333 5.86667 65.0965 5.86667 44C5.86667 37.6112 7.46533 31.3251 10.5248 25.7195C10.7295 25.3805 10.8634 25.0035 10.9185 24.6114C10.9735 24.2192 10.9487 23.82 10.8453 23.4377C10.7419 23.0554 10.5622 22.6981 10.317 22.3871C10.0718 22.0761 9.76621 21.818 9.41859 21.6284C9.07096 21.4387 8.68854 21.3214 8.29435 21.2835C7.90017 21.2456 7.5024 21.2879 7.125 21.4079C6.74761 21.5279 6.39842 21.723 6.09847 21.9815C5.79852 22.2401 5.55403 22.5567 5.37973 22.9123C1.84955 29.3804 -0.000236914 36.6313 2.27588e-08 44C2.27588e-08 68.2645 19.7355 88 44 88C68.2645 88 88 68.2645 88 44C88 19.7355 68.2675 -0.0117281 44 5.22605e-06ZM15.004 12.0325C14.6121 12.0256 14.2227 12.0973 13.8589 12.2434C13.4952 12.3896 13.1644 12.6071 12.8861 12.8832C12.6134 13.1556 12.397 13.4791 12.2494 13.8352C12.1018 14.1913 12.0258 14.5731 12.0258 14.9585C12.0258 15.344 12.1018 15.7257 12.2494 16.0818C12.397 16.4379 12.6134 16.7614 12.8861 17.0339C13.1586 17.307 13.4823 17.5238 13.8387 17.6717C14.1951 17.8195 14.5771 17.8956 14.9629 17.8956C15.3488 17.8956 15.7308 17.8195 16.0872 17.6717C16.4436 17.5238 16.7673 17.307 17.0397 17.0339C17.5889 16.483 17.8967 15.7366 17.8956 14.9588C17.8945 14.181 17.5846 13.4354 17.0339 12.8861C16.4938 12.3488 15.7658 12.0427 15.004 12.0325ZM32.2784 23.4608C31.8907 23.4585 31.5064 23.533 31.1477 23.6801C30.789 23.8272 30.4631 24.044 30.1887 24.3178C29.9143 24.5917 29.6969 24.9172 29.549 25.2756C29.4012 25.634 29.3259 26.0182 29.3275 26.4059V61.5941C29.3274 62.1025 29.4595 62.6022 29.7107 63.0441C29.962 63.4861 30.3238 63.8551 30.7607 64.1151C31.1975 64.3751 31.6945 64.5171 32.2027 64.5272C32.711 64.5372 33.2132 64.415 33.66 64.1725L65.9472 46.5667C66.4057 46.313 66.7878 45.9412 67.054 45.4898C67.3201 45.0384 67.4604 44.524 67.4604 44C67.4604 43.476 67.3201 42.9616 67.054 42.5102C66.7878 42.0589 66.4057 41.687 65.9472 41.4333L33.66 23.8275C33.2367 23.5932 32.7621 23.4672 32.2784 23.4608ZM35.2 31.3456L58.432 43.9883L35.2 56.6544V31.3456Z" fill="#00A3FF"/>
</svg>
