<svg width="30" height="30" viewBox="0 0 30 30" fill="none" xmlns="http://www.w3.org/2000/svg">
<path d="M15.0001 26.7857C21.5091 26.7857 26.7858 21.509 26.7858 14.9999C26.7858 8.49088 21.5091 3.21423 15.0001 3.21423C8.491 3.21423 3.21436 8.49088 3.21436 14.9999C3.21436 21.509 8.491 26.7857 15.0001 26.7857Z" fill="#C2E4F8"/>
<path d="M15.0001 26.7857C21.5091 26.7857 26.7858 21.509 26.7858 14.9999C26.7858 8.49088 21.5091 3.21423 15.0001 3.21423C8.491 3.21423 3.21436 8.49088 3.21436 14.9999C3.21436 21.509 8.491 26.7857 15.0001 26.7857Z" stroke="#249FE6" stroke-linejoin="round"/>
<path d="M15.0002 20.3571C17.9589 20.3571 20.3574 17.9586 20.3574 15C20.3574 12.0413 17.9589 9.64282 15.0002 9.64282C12.0415 9.64282 9.64307 12.0413 9.64307 15C9.64307 17.9586 12.0415 20.3571 15.0002 20.3571Z" fill="white" stroke="#249FE6" stroke-linejoin="round"/>
<path d="M15 4.28571V0M25.7143 15H30M15 25.7143V30M4.28571 15H0" stroke="#249FE6"/>
</svg>
