<?xml version="1.0" encoding="utf-8"?>
<svg viewBox="10.537 74.814 483.141 310.33" xmlns="http://www.w3.org/2000/svg">
  <circle cx="343.576" cy="-2.255" r="26.701" fill="#fd6584" style="" transform="matrix(0.5417020320892335, 0, 0, 0.515778958797455, 61.1110658215145, 119.29640375519398)"/>
  <path d="M 279.599 111.611 C 278.765 109.009 276.387 107.127 273.547 106.82 C 273.515 106.818 273.483 106.818 273.449 106.82 C 273.411 106.808 273.372 106.8 273.33 106.794 C 268.488 106.196 263.105 107.65 259.48 110.818 C 258.134 111.974 257.06 113.386 256.322 114.964 C 254.957 113.19 252.763 112.172 250.455 112.24 C 247.451 112.429 244.896 114.391 244.062 117.146 C 243.971 117.484 244.122 117.837 244.436 118.018 C 244.872 118.372 245.39 118.623 245.948 118.751 C 247.145 118.993 248.353 119.214 249.561 119.415 C 251.922 119.806 254.298 120.126 256.685 120.37 C 258.261 120.53 259.84 120.657 261.424 120.751 C 264.696 120.947 267.984 120.994 271.262 120.896 C 272.886 120.844 274.448 120.792 275.931 120.112 C 277.013 119.605 277.937 118.839 278.613 117.888 C 279.9 116.039 280.261 113.739 279.599 111.611 Z" style="fill: rgb(124, 187, 255);" transform="matrix(1, 0, 0, 1, 5.684341886080802e-14, 0)"/>
  <path d="M 249.843 131.676 C 249.815 131.098 249.713 130.526 249.539 129.972 C 248.701 127.371 246.324 125.489 243.483 125.182 C 243.454 125.179 243.422 125.179 243.391 125.182 C 243.35 125.172 243.309 125.161 243.266 125.156 C 240.586 124.844 237.867 125.109 235.309 125.934 C 231.377 127.189 227.925 129.715 226.263 133.325 C 224.896 131.55 222.7 130.532 220.389 130.603 C 217.387 130.79 214.831 132.753 213.998 135.508 C 213.912 135.845 214.062 136.195 214.372 136.379 C 214.809 136.732 215.326 136.984 215.883 137.112 C 217.086 137.354 218.289 137.575 219.502 137.776 C 221.863 138.168 224.236 138.488 226.619 138.731 C 231.463 139.226 236.335 139.402 241.202 139.258 C 242.822 139.206 244.388 139.153 245.872 138.473 C 246.952 137.967 247.875 137.201 248.547 136.249 C 249.498 134.903 249.952 133.295 249.843 131.676 Z" style="fill: rgb(124, 187, 255);" transform="matrix(1, 0, 0, 1, 5.684341886080802e-14, 0)"/>
  <path d="M 438.22 298.782 C 438.427 308.172 437.067 317.534 434.188 326.516 C 434.087 326.843 433.966 327.17 433.845 327.495 L 374.499 327.495 C 375.348 323.517 376.694 319.652 378.51 315.98 C 383.449 305.998 391.512 297.457 399.475 288.974 C 410.442 277.285 421.145 265.692 422.838 250.49 C 427.185 256.8 430.655 263.619 433.159 270.777 C 430.092 271.861 427.279 273.503 424.875 275.614 C 424.209 276.209 423.504 277.073 423.847 277.899 C 424.169 278.59 425.055 278.819 425.842 278.973 C 427.737 279.32 429.632 279.666 431.527 279.991 C 433.018 280.278 434.53 280.548 436.043 280.816 C 437.372 286.724 438.101 292.74 438.22 298.782 Z" style="fill: rgb(0, 112, 19);" transform="matrix(1, 0, 0, 1, 5.684341886080802e-14, 0)"/>
  <path d="M 488.072 292.563 C 478.556 298.072 472.509 306.593 467.57 316.133 C 463.273 317.065 459.304 319.05 456.06 321.89 C 455.374 322.486 454.668 323.348 455.031 324.176 C 455.334 324.865 456.241 325.096 457.028 325.25 C 458.902 325.594 460.817 325.94 462.691 326.268 C 462.51 326.67 462.329 327.093 462.147 327.495 L 399.253 327.495 C 402.108 323.829 405.27 320.389 408.707 317.207 C 409.454 316.496 410.22 315.826 411.004 315.135 C 419.023 308.236 428.228 302.703 438.22 298.782 C 453.958 292.517 471.17 290.369 488.072 292.563 Z" style="fill: rgb(0, 185, 19);" transform="matrix(1, 0, 0, 1, 5.684341886080802e-14, 0)"/>
  <path d="M 409.737 327.495 L 353.736 327.495 C 353.43 323.226 353.457 318.941 353.816 314.675 C 356.054 288.321 371.112 263.216 393.831 248.013 C 390.929 257.861 392.42 267.65 395.443 277.476 C 395.02 277.611 394.597 277.726 394.214 277.879 C 391.146 278.962 388.333 280.605 385.929 282.717 C 385.263 283.312 384.558 284.175 384.899 285.001 C 385.203 285.692 386.11 285.922 386.896 286.075 C 388.791 286.421 390.686 286.767 392.56 287.093 C 394.072 287.381 395.584 287.649 397.096 287.937 C 397.803 288.052 398.506 288.187 399.213 288.321 C 399.314 288.552 399.374 288.763 399.475 288.974 C 403.023 298.282 406.893 307.668 408.707 317.207 C 409.157 319.602 409.466 322.017 409.635 324.443 C 409.695 325.461 409.737 326.478 409.737 327.495 Z" fill="#f2f2f2" style="" transform="matrix(1, 0, 0, 1, 5.684341886080802e-14, 0)"/>
  <path d="M 104.531 298.782 C 104.739 308.172 103.378 317.534 100.499 326.516 C 100.397 326.843 100.278 327.17 100.157 327.495 L 40.809 327.495 C 41.658 323.517 43.006 319.652 44.822 315.98 C 49.76 305.998 57.824 297.457 65.786 288.974 C 76.753 277.285 87.456 265.692 89.149 250.49 C 93.496 256.8 96.966 263.619 99.47 270.777 C 96.404 271.861 93.589 273.503 91.186 275.614 C 90.521 276.209 89.815 277.073 90.158 277.899 C 90.48 278.59 91.368 278.819 92.154 278.973 C 94.049 279.32 95.944 279.666 97.838 279.991 C 99.329 280.278 100.842 280.548 102.354 280.816 C 103.682 286.724 104.412 292.74 104.531 298.782 Z" style="fill: rgb(0, 186, 25);" transform="matrix(1, 0, 0, 1, 5.684341886080802e-14, 0)"/>
  <path d="M 154.383 292.563 C 144.868 298.072 138.82 306.593 133.88 316.133 C 129.584 317.065 125.616 319.05 122.371 321.89 C 121.686 322.486 120.98 323.348 121.343 324.176 C 121.644 324.865 122.553 325.096 123.339 325.25 C 125.213 325.594 127.127 325.94 129.003 326.268 C 128.821 326.67 128.64 327.093 128.458 327.495 L 65.564 327.495 C 68.419 323.829 71.581 320.389 75.019 317.207 C 75.765 316.496 76.531 315.826 77.316 315.135 C 85.334 308.236 94.54 302.703 104.531 298.782 C 120.269 292.517 137.48 290.369 154.383 292.563 Z" fill="#f2f2f2" style="" transform="matrix(1, 0, 0, 1, 5.684341886080802e-14, 0)"/>
  <path d="M 76.047 327.495 L 20.047 327.495 C 19.741 323.226 19.767 318.941 20.128 314.675 C 22.366 288.321 37.423 263.216 60.143 248.013 C 57.24 257.861 58.731 267.65 61.755 277.476 C 61.332 277.611 60.908 277.726 60.524 277.879 C 57.458 278.962 54.643 280.605 52.239 282.717 C 51.575 283.312 50.87 284.175 51.211 285.001 C 51.514 285.692 52.422 285.922 53.207 286.075 C 55.102 286.421 56.997 286.767 58.871 287.093 C 60.383 287.381 61.896 287.649 63.407 287.937 C 64.114 288.052 64.819 288.187 65.525 288.321 C 65.623 288.552 65.686 288.763 65.786 288.974 C 69.335 298.282 73.204 307.668 75.019 317.207 C 75.469 319.602 75.777 322.017 75.945 324.443 C 76.007 325.461 76.047 326.478 76.047 327.495 Z" style="fill: rgb(0, 100, 12);" transform="matrix(1, 0, 0, 1, 5.684341886080802e-14, 0)"/>
  <path d="M 284.526 305.108 L 334.563 309.338 L 335.099 309.385 L 335.099 106.095 C 334.921 105.978 334.742 105.859 334.563 105.741 C 324.136 98.795 312.855 93.09 300.973 88.751 L 298.415 122.328 L 298.183 125.402 L 295.654 158.7 L 294.873 168.943 L 284.618 303.924 L 284.526 305.108 Z" style="fill: rgb(59, 59, 59);" transform="matrix(1, 0, 0, 1, 5.684341886080802e-14, 0)"/>
  <path d="M 160.784 102.31 C 160.428 102.527 160.069 102.744 159.712 102.971 L 159.712 309.385 L 160.784 309.291 L 210.281 305.108 L 210.188 303.924 L 199.934 168.943 L 199.154 158.7 L 196.624 125.402 L 196.39 122.328 L 193.71 87.116 C 182.147 90.932 171.095 96.032 160.784 102.31 Z" style="fill: rgb(59, 59, 59);" transform="matrix(1, 0, 0, 1, 5.684341886080802e-14, 0)"/>
  <path d="M 159.712 102.971 C 158.991 103.413 158.272 103.867 157.561 104.327 L 157.561 312.201 C 157.561 317.395 160.796 321.748 165.12 322.857 C 165.826 323.038 166.553 323.132 167.285 323.131 L 328.064 323.131 C 328.793 323.132 329.519 323.039 330.225 322.857 C 331.831 322.433 333.287 321.603 334.439 320.454 C 336.635 318.219 337.835 315.261 337.786 312.201 L 337.786 107.943 C 336.898 107.318 336.004 106.699 335.099 106.095 C 334.921 105.978 334.742 105.859 334.563 105.741 L 334.563 312.201 C 334.564 312.87 334.48 313.536 334.315 314.187 C 333.551 317.256 331.032 319.504 328.064 319.504 L 167.285 319.504 C 163.699 319.504 160.784 316.23 160.784 312.201 L 160.784 102.31 C 160.428 102.527 160.069 102.744 159.712 102.971 Z" style="fill: rgb(47, 47, 47);" transform="matrix(1, 0, 0, 1, 5.684341886080802e-14, 0)"/>
  <rect x="159.173" y="122.329" width="177.002" height="3.074" style="fill: rgb(47, 47, 47);" transform="matrix(1, 0, 0, 1, 5.684341886080802e-14, 0)"/>
  <path d="M 281.964 83.123 C 280.891 82.871 279.819 82.633 278.735 82.413 L 278.735 165.87 L 281.964 165.87 L 281.964 83.123 Z" style="fill: rgb(47, 47, 47);" transform="matrix(1, 0, 0, 1, 5.684341886080802e-14, 0)"/>
  <path d="M 216.613 81.375 C 215.534 81.566 214.456 81.762 213.384 81.973 L 213.384 165.87 L 216.613 165.87 L 216.613 81.375 Z" style="fill: rgb(47, 47, 47);" transform="matrix(1, 0, 0, 1, 5.684341886080802e-14, 0)"/>
  <path d="M 124.469 317.75 C 124.469 319.516 124.824 321.263 125.515 322.899 C 125.781 323.534 126.097 324.147 126.463 324.734 C 126.934 325.5 127.483 326.223 128.099 326.891 C 130.851 329.877 134.824 331.59 138.998 331.59 L 350.972 331.59 C 362.155 331.59 369.145 320.061 363.554 310.839 C 360.959 306.559 356.161 303.924 350.972 303.924 L 138.998 303.924 C 130.979 303.93 124.48 310.117 124.469 317.75 Z" style="fill: rgb(39, 39, 39);" transform="matrix(1, 0, 0, 1, 5.684341886080802e-14, 0)"/>
  <rect x="-335.099" y="-168.946" width="175.927" height="10.245" transform="matrix(-1, 0, 0, -1, 5.684341886080802e-14, 0)" style="fill: rgb(47, 47, 47);"/>
  <path d="M 239.605 155.627 L 254.667 155.627 C 254.667 155.627 254.667 155.627 254.667 155.627 C 254.667 158.738 252.019 161.261 248.75 161.261 L 245.523 161.261 C 242.253 161.261 239.605 158.738 239.605 155.627 C 239.605 155.627 239.605 155.627 239.605 155.627 Z" style="fill: rgb(47, 47, 47); transform-origin: 247.136px 158.444px;" transform="matrix(-1, 0, 0, -1, 0.000068400382, 0.00003523957)"/>
  <path d="M 11.286 325.653 C 15.991 330.963 21.082 335.951 26.519 340.585 L 463.445 340.585 C 468.882 335.951 473.972 330.963 478.677 325.653 L 11.286 325.653 Z" fill="#3f3d56" style="" transform="matrix(1, 0, 0, 1, 5.684341886080802e-14, 0)"/>
  <path d="M 226.175 275.72 L 226.175 328.619 L 265.095 328.619 L 265.095 275.72 C 265.096 274.94 264.563 274.249 263.779 274.019 C 263.599 273.962 263.41 273.934 263.221 273.935 L 228.054 273.935 C 227.016 273.934 226.175 274.733 226.175 275.72 Z M 241.364 293.897 C 241.394 290.851 244.874 288.979 247.629 290.526 C 248.885 291.231 249.659 292.51 249.673 293.897 L 249.673 300.035 C 249.657 303.079 246.184 304.965 243.423 303.43 C 242.154 302.724 241.371 301.433 241.364 300.035 L 241.364 293.897 Z" fill="#2f2e41" style="" transform="matrix(1, 0, 0, 1, 5.684341886080802e-14, 0)"/>
  <path d="M 226.054 326.927 L 226.054 332.027 C 226.058 332.577 226.523 333.024 227.1 333.028 L 264.169 333.028 C 264.747 333.026 265.214 332.58 265.214 332.027 L 265.214 326.927 L 226.054 326.927 Z" fill="#3f3d56" style="" transform="matrix(1, 0, 0, 1, 5.684341886080802e-14, 0)"/>
  <path d="M 164.946 196.022 L 164.946 292.607 C 164.948 295.169 167.129 297.246 169.821 297.247 L 320.144 297.247 C 322.835 297.246 325.016 295.169 325.019 292.607 L 325.019 196.022 C 325.012 193.461 322.833 191.389 320.144 191.385 L 169.821 191.385 C 167.132 191.389 164.952 193.461 164.946 196.022 Z" fill="#3f3d56" style="" transform="matrix(1, 0, 0, 1, 5.684341886080802e-14, 0)"/>
  <path d="M 168.471 197.223 L 168.471 291.415 C 168.474 292.785 169.64 293.895 171.077 293.897 L 318.891 293.897 C 320.33 293.895 321.495 292.785 321.497 291.415 L 321.497 197.223 C 321.497 195.853 320.332 194.741 318.891 194.739 L 171.077 194.739 C 169.637 194.741 168.471 195.853 168.471 197.223 Z" fill="#6c63ff" style="" transform="matrix(1, 0, 0, 1, 5.684341886080802e-14, 0)"/>
  <path d="M 198.612 334.229 C 198.918 334.594 199.38 334.806 199.869 334.802 L 287.809 334.802 C 288.834 334.801 289.602 333.903 289.391 332.946 L 288.026 326.772 C 287.91 326.26 287.531 325.838 287.018 325.653 C 286.835 325.584 286.64 325.55 286.444 325.55 L 201.229 325.55 C 201.032 325.55 200.838 325.584 200.654 325.653 C 200.141 325.838 199.762 326.259 199.648 326.772 L 198.282 332.946 C 198.183 333.4 198.304 333.872 198.612 334.229 Z" fill="#2f2e41" style="" transform="matrix(1, 0, 0, 1, 5.684341886080802e-14, 0)"/>
  <rect x="-224.708" y="-208.912" width="2.709" height="1.547" rx="0.488" transform="matrix(-1, 0, 0, -1, 61.1110658215145, 119.29640375519398)" fill="#3f3d56" style=""/>
  <rect x="-219.291" y="-208.912" width="2.709" height="1.547" rx="0.488" transform="matrix(-1, 0, 0, -1, 61.1110658215145, 119.29640375519398)" fill="#3f3d56" style=""/>
  <rect x="-213.875" y="-208.912" width="2.709" height="1.547" rx="0.488" transform="matrix(-1, 0, 0, -1, 61.1110658215145, 119.29640375519398)" fill="#3f3d56" style=""/>
  <rect x="-208.456" y="-208.912" width="2.709" height="1.547" rx="0.488" transform="matrix(-1, 0, 0, -1, 61.1110658215145, 119.29640375519398)" fill="#3f3d56" style=""/>
  <rect x="-203.04" y="-208.912" width="2.709" height="1.547" rx="0.488" transform="matrix(-1, 0, 0, -1, 61.1110658215145, 119.29640375519398)" fill="#3f3d56" style=""/>
  <rect x="-197.623" y="-208.912" width="2.709" height="1.547" rx="0.488" transform="matrix(-1, 0, 0, -1, 61.1110658215145, 119.29640375519398)" fill="#3f3d56" style=""/>
  <rect x="-192.206" y="-208.912" width="2.709" height="1.547" rx="0.488" transform="matrix(-1, 0, 0, -1, 61.1110658215145, 119.29640375519398)" fill="#3f3d56" style=""/>
  <rect x="-186.789" y="-208.912" width="2.709" height="1.547" rx="0.488" transform="matrix(-1, 0, 0, -1, 61.1110658215145, 119.29640375519398)" fill="#3f3d56" style=""/>
  <rect x="-181.371" y="-208.912" width="2.709" height="1.547" rx="0.488" transform="matrix(-1, 0, 0, -1, 61.1110658215145, 119.29640375519398)" fill="#3f3d56" style=""/>
  <rect x="-175.955" y="-208.912" width="2.709" height="1.547" rx="0.488" transform="matrix(-1, 0, 0, -1, 61.1110658215145, 119.29640375519398)" fill="#3f3d56" style=""/>
  <rect x="-170.537" y="-208.912" width="2.709" height="1.547" rx="0.488" transform="matrix(-1, 0, 0, -1, 61.1110658215145, 119.29640375519398)" fill="#3f3d56" style=""/>
  <rect x="-165.121" y="-208.912" width="2.709" height="1.547" rx="0.488" transform="matrix(-1, 0, 0, -1, 61.1110658215145, 119.29640375519398)" fill="#3f3d56" style=""/>
  <rect x="-159.703" y="-208.912" width="2.709" height="1.547" rx="0.488" transform="matrix(-1, 0, 0, -1, 61.1110658215145, 119.29640375519398)" fill="#3f3d56" style=""/>
  <rect x="-154.287" y="-208.912" width="2.709" height="1.547" rx="0.488" transform="matrix(-1, 0, 0, -1, 61.1110658215145, 119.29640375519398)" fill="#3f3d56" style=""/>
  <rect x="-148.869" y="-208.912" width="2.709" height="1.547" rx="0.488" transform="matrix(-1, 0, 0, -1, 61.1110658215145, 119.29640375519398)" fill="#3f3d56" style=""/>
  <rect x="-143.453" y="-208.912" width="2.709" height="1.547" rx="0.488" transform="matrix(-1, 0, 0, -1, 61.1110658215145, 119.29640375519398)" fill="#3f3d56" style=""/>
  <rect x="-224.772" y="-211.493" width="2.709" height="1.547" rx="0.488" transform="matrix(-1, 0, 0, -1, 61.1110658215145, 119.29640375519398)" fill="#3f3d56" style=""/>
  <rect x="-219.355" y="-211.493" width="2.709" height="1.547" rx="0.488" transform="matrix(-1, 0, 0, -1, 61.1110658215145, 119.29640375519398)" fill="#3f3d56" style=""/>
  <rect x="-213.937" y="-211.493" width="2.709" height="1.547" rx="0.488" transform="matrix(-1, 0, 0, -1, 61.1110658215145, 119.29640375519398)" fill="#3f3d56" style=""/>
  <rect x="-208.522" y="-211.493" width="2.709" height="1.547" rx="0.488" transform="matrix(-1, 0, 0, -1, 61.1110658215145, 119.29640375519398)" fill="#3f3d56" style=""/>
  <rect x="-203.104" y="-211.493" width="2.709" height="1.547" rx="0.488" transform="matrix(-1, 0, 0, -1, 61.1110658215145, 119.29640375519398)" fill="#3f3d56" style=""/>
  <rect x="-197.686" y="-211.493" width="2.709" height="1.547" rx="0.488" transform="matrix(-1, 0, 0, -1, 61.1110658215145, 119.29640375519398)" fill="#3f3d56" style=""/>
  <rect x="-192.27" y="-211.493" width="2.709" height="1.547" rx="0.488" transform="matrix(-1, 0, 0, -1, 61.1110658215145, 119.29640375519398)" fill="#3f3d56" style=""/>
  <rect x="-186.852" y="-211.493" width="2.709" height="1.547" rx="0.488" transform="matrix(-1, 0, 0, -1, 61.1110658215145, 119.29640375519398)" fill="#3f3d56" style=""/>
  <rect x="-181.437" y="-211.493" width="2.709" height="1.547" rx="0.488" transform="matrix(-1, 0, 0, -1, 61.1110658215145, 119.29640375519398)" fill="#3f3d56" style=""/>
  <rect x="-176.018" y="-211.493" width="2.709" height="1.547" rx="0.488" transform="matrix(-1, 0, 0, -1, 61.1110658215145, 119.29640375519398)" fill="#3f3d56" style=""/>
  <rect x="-170.602" y="-211.493" width="2.709" height="1.547" rx="0.488" transform="matrix(-1, 0, 0, -1, 61.1110658215145, 119.29640375519398)" fill="#3f3d56" style=""/>
  <rect x="-165.185" y="-211.493" width="2.709" height="1.547" rx="0.488" transform="matrix(-1, 0, 0, -1, 61.1110658215145, 119.29640375519398)" fill="#3f3d56" style=""/>
  <rect x="-159.769" y="-211.493" width="2.709" height="1.547" rx="0.488" transform="matrix(-1, 0, 0, -1, 61.1110658215145, 119.29640375519398)" fill="#3f3d56" style=""/>
  <rect x="-154.35" y="-211.493" width="2.709" height="1.547" rx="0.488" transform="matrix(-1, 0, 0, -1, 61.1110658215145, 119.29640375519398)" fill="#3f3d56" style=""/>
  <rect x="-148.933" y="-211.493" width="2.709" height="1.547" rx="0.488" transform="matrix(-1, 0, 0, -1, 61.1110658215145, 119.29640375519398)" fill="#3f3d56" style=""/>
  <rect x="-143.517" y="-211.493" width="2.709" height="1.547" rx="0.488" transform="matrix(-1, 0, 0, -1, 61.1110658215145, 119.29640375519398)" fill="#3f3d56" style=""/>
  <rect x="-259.882" y="-333.882" width="21.667" height="1.547" rx="0.488" transform="matrix(-1, 0, 0, -1, 5.684341886080802e-14, 0)" fill="#3f3d56" style=""/>
  <path d="M 178.505 207.714 L 316.815 207.714 C 317.238 207.704 317.493 207.262 317.274 206.918 C 317.174 206.765 317.002 206.67 316.815 206.665 L 178.505 206.665 C 178.081 206.675 177.827 207.116 178.047 207.462 C 178.144 207.615 178.317 207.708 178.505 207.714 Z" fill="#3f3d56" style="" transform="matrix(1, 0, 0, 1, 5.684341886080802e-14, 0)"/>
  <ellipse cx="307.4" cy="200.854" rx="3.223" ry="3.138" fill="#3f3d56" style="" transform="matrix(1, 0, 0, 1, 5.684341886080802e-14, 0)"/>
  <ellipse cx="296.264" cy="200.854" rx="3.223" ry="3.138" fill="#3f3d56" style="" transform="matrix(1, 0, 0, 1, 5.684341886080802e-14, 0)"/>
  <ellipse cx="285.128" cy="200.854" rx="3.223" ry="3.138" fill="#3f3d56" style="" transform="matrix(1, 0, 0, 1, 5.684341886080802e-14, 0)"/>
  <path d="M 184.62 199.066 C 184.618 199.378 184.883 199.632 185.21 199.633 L 193.119 199.633 C 193.581 199.622 193.857 199.141 193.616 198.767 C 193.511 198.6 193.323 198.498 193.119 198.493 L 185.21 198.493 C 184.881 198.497 184.618 198.754 184.62 199.066 Z" fill="#3f3d56" style="" transform="matrix(1, 0, 0, 1, 5.684341886080802e-14, 0)"/>
  <path d="M 184.62 201.205 C 184.618 201.518 184.883 201.772 185.21 201.773 L 193.119 201.773 C 193.581 201.764 193.858 201.282 193.617 200.908 C 193.512 200.741 193.324 200.638 193.119 200.634 L 185.21 200.634 C 184.881 200.637 184.618 200.893 184.62 201.205 Z" fill="#3f3d56" style="" transform="matrix(1, 0, 0, 1, 5.684341886080802e-14, 0)"/>
  <path d="M 184.62 203.341 C 184.618 203.654 184.881 203.91 185.21 203.914 L 193.119 203.914 C 193.581 203.904 193.857 203.422 193.616 203.046 C 193.511 202.882 193.323 202.778 193.119 202.774 L 185.21 202.774 C 184.883 202.775 184.618 203.029 184.62 203.341 Z" fill="#3f3d56" style="" transform="matrix(1, 0, 0, 1, 5.684341886080802e-14, 0)"/>
  <rect x="182.663" y="219.884" width="5.963" height="2.971" rx="2.88" fill="#e6e6e6" style="" transform="matrix(1, 0, 0, 1, 5.684341886080802e-14, 0)"/>
  <rect x="215.164" y="219.884" width="5.963" height="2.971" rx="2.88" fill="#e6e6e6" style="" transform="matrix(1, 0, 0, 1, 5.684341886080802e-14, 0)"/>
  <rect x="224.373" y="219.884" width="5.963" height="2.971" rx="2.88" fill="#e6e6e6" style="" transform="matrix(1, 0, 0, 1, 5.684341886080802e-14, 0)"/>
  <rect x="191.503" y="219.637" width="20.782" height="2.971" rx="2.88" fill="#e6e6e6" style="" transform="matrix(1, 0, 0, 1, 5.684341886080802e-14, 0)"/>
  <rect x="234.839" y="219.637" width="20.782" height="2.971" rx="2.88" fill="#e6e6e6" style="" transform="matrix(1, 0, 0, 1, 5.684341886080802e-14, 0)"/>
  <rect x="192.019" y="231.55" width="5.963" height="2.971" rx="2.88" fill="#e6e6e6" style="" transform="matrix(1, 0, 0, 1, -0.6880310280326967, -4.960980012431435)"/>
  <rect x="223.832" y="226.589" width="5.963" height="2.971" rx="2.88" fill="#e6e6e6" style="" transform="matrix(1, 0, 0, 1, 5.684341886080802e-14, 0)"/>
  <rect x="233.04" y="226.59" width="5.963" height="2.971" rx="2.88" fill="#e6e6e6" style="" transform="matrix(1, 0, 0, 1, 5.684341886080802e-14, 0)"/>
  <rect x="200.17" y="226.342" width="20.782" height="2.971" rx="2.88" fill="#e6e6e6" style="" transform="matrix(1, 0, 0, 1, 5.684341886080802e-14, 0)"/>
  <rect x="243.507" y="226.342" width="20.782" height="2.971" rx="2.88" fill="#e6e6e6" style="" transform="matrix(1, 0, 0, 1, 5.684341886080802e-14, 0)"/>
  <rect x="199.997" y="233.295" width="5.963" height="2.971" rx="2.88" fill="#e6e6e6" style="" transform="matrix(1, 0, 0, 1, 5.684341886080802e-14, 0)"/>
  <rect x="232.498" y="233.295" width="5.963" height="2.971" rx="2.88" fill="#e6e6e6" style="" transform="matrix(1, 0, 0, 1, 5.684341886080802e-14, 0)"/>
  <rect x="241.708" y="233.295" width="5.963" height="2.971" rx="2.88" fill="#e6e6e6" style="" transform="matrix(1, 0, 0, 1, 5.684341886080802e-14, 0)"/>
  <rect x="208.838" y="233.046" width="20.782" height="2.971" rx="2.88" fill="#e6e6e6" style="" transform="matrix(1, 0, 0, 1, 5.684341886080802e-14, 0)"/>
  <rect x="252.174" y="233.046" width="20.782" height="2.971" rx="2.88" fill="#e6e6e6" style="" transform="matrix(1, 0, 0, 1, 5.684341886080802e-14, 0)"/>
  <rect x="208.664" y="239.999" width="5.963" height="2.971" rx="2.88" fill="#e6e6e6" style="" transform="matrix(1, 0, 0, 1, 5.684341886080802e-14, 0)"/>
  <rect x="241.166" y="239.999" width="5.963" height="2.971" rx="2.88" fill="#e6e6e6" style="" transform="matrix(1, 0, 0, 1, 5.684341886080802e-14, 0)"/>
  <rect x="250.373" y="239.999" width="5.963" height="2.971" rx="2.88" fill="#e6e6e6" style="" transform="matrix(1, 0, 0, 1, 5.684341886080802e-14, 0)"/>
  <rect x="217.505" y="239.752" width="20.782" height="2.971" rx="2.88" fill="#e6e6e6" style="" transform="matrix(1, 0, 0, 1, 5.684341886080802e-14, 0)"/>
  <rect x="243.801" y="277.213" width="5.963" height="2.971" rx="2.88" fill="#e6e6e6" style="" transform="matrix(1, 0, 0, 1, -28.637119719939164, -10.550798573356829)"/>
  <rect x="253.01" y="277.213" width="5.963" height="2.971" rx="2.88" fill="#e6e6e6" style="" transform="matrix(1, 0, 0, 1, -28.637119719939164, -10.550798573356829)"/>
  <rect x="234.839" y="266.91" width="20.782" height="2.971" rx="2.88" fill="#e6e6e6" style="" transform="matrix(1, 0, 0, 1, 5.684341886080802e-14, 0)"/>
  <rect x="182.662" y="266.662" width="5.963" height="2.971" rx="2.88" fill="#e6e6e6" style="" transform="matrix(1, 0, 0, 1, 5.684341886080802e-14, 0)"/>
  <rect x="191.503" y="266.91" width="20.782" height="2.971" rx="2.88" fill="#e6e6e6" style="" transform="matrix(1, 0, 0, 1, 5.684341886080802e-14, 0)"/>
  <rect x="191.331" y="259.957" width="5.963" height="2.971" rx="2.88" fill="#e6e6e6" style="" transform="matrix(1, 0, 0, 1, 5.684341886080802e-14, 0)"/>
  <rect x="223.832" y="259.957" width="5.963" height="2.971" rx="2.88" fill="#e6e6e6" style="" transform="matrix(1, 0, 0, 1, 5.684341886080802e-14, 0)"/>
  <rect x="233.04" y="259.957" width="5.963" height="2.971" rx="2.88" fill="#e6e6e6" style="" transform="matrix(1, 0, 0, 1, 5.684341886080802e-14, 0)"/>
  <rect x="200.17" y="260.205" width="20.782" height="2.971" rx="2.88" fill="#e6e6e6" style="" transform="matrix(1, 0, 0, 1, 5.684341886080802e-14, 0)"/>
  <rect x="199.997" y="253.251" width="5.963" height="2.971" rx="2.88" fill="#e6e6e6" style="" transform="matrix(1, 0, 0, 1, 5.684341886080802e-14, 0)"/>
  <rect x="232.498" y="253.251" width="5.963" height="2.971" rx="2.88" fill="#e6e6e6" style="" transform="matrix(1, 0, 0, 1, 5.684341886080802e-14, 0)"/>
  <rect x="241.708" y="253.251" width="5.963" height="2.971" rx="2.88" fill="#e6e6e6" style="" transform="matrix(1, 0, 0, 1, 5.684341886080802e-14, 0)"/>
  <rect x="208.838" y="253.498" width="20.782" height="2.971" rx="2.88" fill="#e6e6e6" style="" transform="matrix(1, 0, 0, 1, 5.684341886080802e-14, 0)"/>
  <rect x="237.301" y="257.096" width="5.963" height="2.971" rx="2.88" fill="#e6e6e6" style="" transform="matrix(1, 0, 0, 1, -28.637119719939164, -10.550798573356829)"/>
  <rect x="241.166" y="246.547" width="5.963" height="2.971" rx="2.88" fill="#e6e6e6" style="" transform="matrix(1, 0, 0, 1, 5.684341886080802e-14, 0)"/>
  <rect x="250.374" y="246.547" width="5.963" height="2.971" rx="2.88" fill="#e6e6e6" style="" transform="matrix(1, 0, 0, 1, 5.684341886080802e-14, 0)"/>
  <rect x="217.505" y="246.793" width="20.782" height="2.971" rx="2.88" fill="#e6e6e6" style="" transform="matrix(1, 0, 0, 1, 5.684341886080802e-14, 0)"/>
  <path d="M 200.835 362.966 C 200.715 363.022 200.595 363.079 200.477 363.131 C 199.724 363.487 198.966 363.837 198.203 364.183 C 195.915 365.219 193.601 366.205 191.257 367.138 C 185.091 369.595 178.762 371.667 172.314 373.343 C 171.231 366.911 170.18 351.742 169.172 340.587 C 168.981 338.487 168.793 336.532 168.604 334.803 C 168.422 332.535 168.081 330.283 167.58 328.058 C 167.53 327.884 167.459 327.715 167.368 327.557 C 167.471 328.449 167.58 331.111 167.682 334.803 C 167.736 336.533 167.785 338.487 167.84 340.587 C 168.094 351.325 168.36 365.935 168.625 374.256 C 167.872 374.431 167.113 374.607 166.354 374.772 C 165.877 374.88 165.395 374.983 164.914 375.082 C 164.329 375.205 163.743 375.328 163.159 375.442 C 162.548 375.566 161.934 375.684 161.322 375.798 C 151.32 377.668 141.148 378.607 130.955 378.603 C 130.277 378.603 129.606 378.598 128.929 378.594 C 128.723 378.594 128.516 378.588 128.306 378.583 C 127.71 378.572 127.092 378.563 126.464 378.546 C 114.417 378.231 102.449 376.587 90.799 373.652 L 91.269 340.586 L 91.351 334.802 L 91.382 332.611 C 91.115 333.317 90.954 334.055 90.906 334.802 C 90.717 336.211 90.522 338.208 90.327 340.586 C 89.585 349.746 88.821 364.522 88.03 372.93 C 78.665 370.392 71.816 368.076 63.258 364.001 C 62.927 363.846 62.592 363.687 62.262 363.527 C 62.322 363.13 62.386 362.733 62.446 362.326 C 63.414 355.909 62.273 347.559 63.345 340.586 C 64.163 335.207 65.008 330.038 65.858 325.654 C 66.887 320.377 67.933 316.23 68.967 314.213 C 70.16 311.888 71.351 309.598 72.505 307.406 C 73.002 306.462 73.492 305.536 73.973 304.625 C 74.233 304.135 74.493 303.651 74.748 303.176 C 75.906 301.015 77.001 299.018 78.003 297.251 C 78.707 296.007 79.358 294.882 79.954 293.897 C 80.652 292.736 81.27 291.778 81.78 291.049 C 85.541 285.621 91.136 281.58 97.64 279.594 L 97.802 279.554 L 97.959 279.615 L 98.139 279.694 L 108.463 276.098 L 113.073 265.529 L 136.751 264.142 L 140.575 266.911 L 142.532 268.331 L 144.616 269.842 L 148.452 272.621 L 149.54 272.941 L 151.159 273.416 L 162.238 276.655 L 162.353 276.608 L 162.515 276.65 C 168.433 278.454 173.614 281.969 177.335 286.708 C 177.704 287.161 178.045 287.63 178.375 288.105 C 179.274 289.374 180.488 291.38 181.918 293.897 C 182.509 294.934 183.132 296.058 183.787 297.251 C 184.183 297.967 187.595 308.106 190.916 318.465 C 194.02 328.161 197.043 338.048 197.439 340.586 C 197.508 341.056 197.585 341.529 197.654 341.999 C 198.104 344.933 198.548 347.888 198.976 350.772 C 199.609 355.048 200.228 359.174 200.818 362.862 C 200.823 362.899 200.828 362.93 200.835 362.966 Z" fill="#3f3d56" style="" transform="matrix(1, 0, 0, 1, 5.684341886080802e-14, 0)"/>
  <polygon points="175.741 325.63 171.139 308.716 167.075 323.311 175.741 325.63" opacity="0.2" style="" transform="matrix(1, 0, 0, 1, 5.684341886080802e-14, 0)"/>
  <path d="M 19.861 325.433 C 20.35 326.791 21.703 327.694 23.211 327.667 L 37.561 327.316 C 39.081 327.289 40.399 326.31 40.801 324.914 L 42.831 304.239 C 43.552 304.549 44.336 304.703 45.128 304.688 C 49.155 304.591 51.562 300.379 49.462 297.106 C 48.486 295.588 46.734 294.68 44.864 294.724 C 44.548 294.722 44.233 294.754 43.924 294.818 C 43.244 294.118 42.285 293.723 41.284 293.732 L 19.209 294.275 C 19.027 294.283 18.843 294.303 18.665 294.34 C 16.609 294.703 15.364 296.714 16.025 298.602 L 19.861 325.433 Z M 43.248 302.834 L 44.694 297.906 C 44.857 297.339 44.861 296.737 44.704 296.166 C 44.773 296.166 44.836 296.134 44.906 296.134 C 47.787 296.078 49.653 299.013 48.264 301.417 C 47.622 302.526 46.41 303.228 45.082 303.261 C 44.44 303.281 43.807 303.134 43.248 302.834 Z" style="fill: rgb(51, 65, 46);" transform="matrix(1, 0, 0, 1, 5.684341886080802e-14, 0)"/>
  <path d="M 18.665 294.34 C 19.135 296.899 24.422 298.701 30.779 298.388 C 36.626 298.131 41.407 296.176 42.283 293.86 C 41.959 293.768 41.622 293.725 41.284 293.732 L 19.209 294.275 C 19.027 294.283 18.843 294.303 18.665 294.34 Z" fill="#3f3d56" style="" transform="matrix(1, 0, 0, 1, 5.684341886080802e-14, 0)"/>
  <path d="M 31.946 314.072 C 31.975 314.065 32.002 314.054 32.027 314.038 L 35.144 312.097 C 35.307 311.994 35.307 311.767 35.144 311.665 L 31.905 309.645 C 31.731 309.535 31.498 309.646 31.485 309.843 C 31.479 309.935 31.527 310.025 31.609 310.075 L 34.502 311.88 L 31.731 313.607 C 31.557 313.715 31.571 313.963 31.757 314.052 C 31.815 314.081 31.881 314.088 31.946 314.072 Z" fill="#6c63ff" style="" transform="matrix(1, 0, 0, 1, 5.684341886080802e-14, 0)"/>
  <path d="M 27.023 314.289 C 27.225 314.239 27.296 314.001 27.152 313.859 C 27.134 313.841 27.113 313.827 27.091 313.814 L 24.218 312.247 L 26.995 310.282 C 27.162 310.164 27.133 309.92 26.942 309.84 C 26.852 309.803 26.751 309.814 26.672 309.87 L 23.563 312.067 C 23.408 312.178 23.421 312.405 23.59 312.499 L 26.822 314.262 C 26.882 314.295 26.955 314.306 27.023 314.289 Z" fill="#6c63ff" style="" transform="matrix(1, 0, 0, 1, 5.684341886080802e-14, 0)"/>
  <path d="M 31.636 315.775 C 31.661 315.768 31.686 315.758 31.71 315.745 C 31.838 315.671 31.878 315.511 31.8 315.39 L 27.383 308.473 C 27.273 308.305 27.013 308.312 26.914 308.487 C 26.868 308.568 26.869 308.664 26.919 308.743 L 31.338 315.658 C 31.399 315.755 31.52 315.803 31.636 315.775 Z" fill="#6c63ff" style="" transform="matrix(1, 0, 0, 1, 5.684341886080802e-14, 0)"/>
  <path d="M 436.603 363.526 C 436.272 363.686 435.937 363.845 435.606 364 C 427.048 368.075 420.201 370.391 410.834 372.929 C 410.042 364.521 409.279 349.745 408.538 340.585 C 408.342 338.207 408.147 336.21 407.958 334.802 C 407.911 334.054 407.749 333.316 407.482 332.61 L 407.514 334.802 L 407.596 340.585 L 408.067 373.652 C 396.416 376.586 384.447 378.229 372.4 378.546 C 371.772 378.562 371.155 378.571 370.558 378.582 C 370.348 378.587 370.141 378.592 369.936 378.592 C 369.258 378.597 368.588 378.602 367.91 378.602 C 355.216 378.613 342.565 377.152 330.241 374.255 C 330.505 365.935 330.77 351.324 331.025 340.585 C 331.079 338.486 331.129 336.531 331.183 334.802 C 331.285 331.109 331.394 328.448 331.497 327.556 C 331.406 327.714 331.334 327.883 331.285 328.056 C 330.784 330.28 330.443 332.534 330.261 334.802 C 330.073 336.531 329.883 338.486 329.692 340.585 C 328.685 351.741 327.634 366.909 326.551 373.342 C 320.102 371.666 313.774 369.592 307.607 367.136 C 304.357 365.847 301.165 364.456 298.031 362.964 C 298.627 359.25 299.249 355.089 299.889 350.771 C 300.387 347.425 300.902 343.984 301.428 340.585 C 302.24 335.334 329.845 278.634 336.351 276.649 L 336.513 276.607 L 336.626 276.653 L 347.704 273.415 L 349.324 272.94 L 350.414 272.62 L 354.247 269.841 L 356.333 268.329 L 358.289 266.911 L 362.114 264.141 L 385.792 265.529 L 390.402 276.097 L 400.726 279.693 L 400.905 279.615 L 401.062 279.553 L 401.226 279.593 C 407.729 281.579 413.324 285.621 417.085 291.048 C 417.594 291.777 418.212 292.735 418.911 293.897 C 419.507 294.881 420.157 296.006 420.862 297.247 C 421.862 299.018 422.957 301.015 424.117 303.175 C 424.372 303.649 424.631 304.134 424.892 304.624 C 425.374 305.532 425.863 306.459 426.359 307.405 C 427.513 309.597 428.704 311.887 429.898 314.212 C 430.931 316.23 431.978 320.376 433.007 325.653 C 433.858 330.036 434.701 335.205 435.519 340.585 C 436.592 347.557 435.45 355.909 436.42 362.325 C 436.478 362.732 436.544 363.129 436.603 363.526 Z" fill="#3f3d56" style="" transform="matrix(1, 0, 0, 1, 5.684341886080802e-14, 0)"/>
  <circle cx="564.975" cy="222.637" r="50.836" fill="#ffb6b6" style="" transform="matrix(0.5417020320892335, 0, 0, 0.515778958797455, 61.1110658215145, 119.29640375519398)"/>
  <polygon points="323.122 325.63 327.725 308.716 331.789 323.311 323.122 325.63" opacity="0.2" style="" transform="matrix(1, 0, 0, 1, 5.684341886080802e-14, 0)"/>
  <path d="M 445.607 314.609 C 443.959 336.21 445.666 345.722 436.576 363.531 C 428.306 367.386 419.692 370.531 410.834 372.929 C 409.914 373.175 408.991 373.417 408.067 373.652 C 396.416 376.586 384.447 378.229 372.4 378.546 C 371.772 378.562 371.155 378.571 370.558 378.582 C 370.348 378.587 370.141 378.592 369.936 378.592 C 369.258 378.597 368.588 378.602 367.91 378.602 C 355.216 378.613 342.565 377.152 330.241 374.255 C 329.005 373.966 327.775 373.662 326.551 373.342 C 320.102 371.666 313.774 369.592 307.607 367.136 C 304.357 365.847 301.165 364.456 298.031 362.964 C 297.32 362.623 296.61 362.283 295.913 361.932 C 292.321 355.919 290.277 348.605 290.235 339.816 C 292.722 324.672 440.114 301.551 445.607 314.609 Z" fill="#2f2e41" style="" transform="matrix(1, 0, 0, 1, 5.684341886080802e-14, 0)"/>
  <path d="M 445.601 318.31 C 445.686 316.972 445.78 315.59 445.89 314.152 C 440.397 301.092 293.005 324.215 290.519 339.359 C 290.526 340.747 290.587 342.093 290.692 343.409 C 296.715 328.463 436.738 306.486 445.601 318.31 Z" opacity="0.2" style="" transform="matrix(1, 0, 0, 1, 5.684341886080802e-14, 0)"/>
  <path d="M 286.57 315.629 L 298.667 309.87 L 288.586 283.951 L 285.929 270.88 C 284.415 263.438 275.029 260.32 268.983 265.254 C 264.736 268.721 264.138 274.772 267.634 278.932 L 277.495 290.67 L 286.57 315.629 Z" fill="#ffb6b6" style="" transform="matrix(1, 0, 0, 1, 5.684341886080802e-14, 0)"/>
  <path d="M 298.667 305.069 L 282.538 312.749 L 294.78 349.271 C 296.567 354.605 301.156 358.658 306.877 359.957 C 313.994 361.569 321.39 358.606 325.154 352.634 L 357.617 299.656 C 362.4 292.063 359.948 282.223 352.092 277.487 C 343.485 272.296 332.051 275.365 327.556 284.071 L 307.742 324.268 L 298.667 305.069 Z" fill="#3f3d56" style="" transform="matrix(1, 0, 0, 1, 5.684341886080802e-14, 0)"/>
  <circle cx="117.529" cy="214.03" r="55.935" fill="#a0616a" style="" transform="matrix(0.5417020320892335, 0, 0, 0.515778958797455, 61.1110658215145, 119.29640375519398)"/>
  <path d="M 94.841 209.806 C 97.305 206.645 100.845 204.397 103.554 201.423 C 105.04 199.79 106.274 197.941 107.945 196.481 C 111.05 193.765 115.39 192.653 119.602 192.515 C 128.964 192.286 137.882 196.316 143.616 203.367 C 145.818 202.137 148.02 200.909 150.223 199.678 C 151.093 201.858 151.96 204.039 152.83 206.22 C 155.157 204.295 158.799 205.489 159.388 208.369 C 159.571 209.266 159.41 210.195 158.933 210.989 C 159.456 209.447 161.857 209.119 163.181 210.138 C 164.505 211.156 164.859 212.969 164.643 214.576 C 164.089 218.184 161.287 221.108 157.567 221.964 C 154.693 222.576 151.348 221.934 149.049 223.684 C 147.205 225.087 146.649 227.642 144.767 228.997 C 142.449 230.669 139.172 229.896 136.29 230.265 C 131.248 230.912 127.255 235.822 127.861 240.631 C 127.404 239.114 126.925 237.553 125.889 236.319 C 124.855 235.087 123.111 234.253 121.522 234.706 C 118.898 235.456 118.468 238.862 119.104 241.4 C 120.791 248.131 127.187 259.01 127.187 259.01 C 118.884 262.129 108.991 259.18 102.584 253.262 C 96.178 247.345 92.841 238.966 91.388 230.581 C 90.156 223.471 90.33 215.596 94.841 209.806 Z" fill="#2f2e41" style="" transform="matrix(1, 0, 0, 1, 5.684341886080802e-14, 0)"/>
  <path d="M 401.67 248.582 C 407.435 235.998 404.17 224.417 397.142 218.274 L 397.142 218.269 C 394.38 212.373 390.707 207.824 386.504 206.758 C 384.471 205.514 382.498 204.054 380.311 203.312 C 378.251 202.577 375.965 202.675 373.983 203.584 L 372.868 203.3 C 371.92 200.996 370.81 200.95 369.574 202.465 C 364.817 200.356 360.534 199.413 356.72 199.413 C 344.282 199.413 336.926 209.439 334.976 221.559 L 345.371 224.196 L 348.984 218.713 L 347.316 224.691 L 353.052 226.139 C 361.785 236.967 351.335 261.94 338.091 275.835 C 341.244 275.004 344.384 274.303 347.511 273.731 L 358.876 257.865 L 351.833 272.308 C 355.491 271.796 360.155 272.287 365.252 273.272 C 366.968 271.137 367.873 268.288 366.985 265.752 C 368.437 268.427 369.44 271.305 369.955 274.277 C 380.712 276.779 395.386 278.063 403.295 279.014 C 409.686 277.026 409.703 254.594 401.67 248.582 Z" fill="#2f2e41" style="" transform="matrix(1, 0, 0, 1, 5.684341886080802e-14, 0)"/>
  <path d="M 405.421 205.776 C 409.643 214.778 401.123 218.649 393.318 218.54 C 386.266 218.442 380.273 213.724 379.912 207.018 C 379.551 200.31 384.972 194.596 392.014 194.252 C 399.059 193.909 402.544 199.644 405.421 205.776 Z" fill="#2f2e41" style="" transform="matrix(1, 0, 0, 1, 5.684341886080802e-14, 0)"/>
  <path d="M 209.539 352.319 L 202.584 341.272 L 225.71 324.566 L 235.326 314.902 C 240.8 309.396 250.477 311.57 252.793 318.823 C 254.42 323.921 251.512 329.329 246.214 331.051 L 231.274 335.908 L 209.539 352.319 Z" fill="#a0616a" style="" transform="matrix(1, 0, 0, 1, 5.684341886080802e-14, 0)"/>
  <path d="M 214.566 351.954 L 203.738 360.547 L 200.818 362.863 L 200.477 363.131 C 199.724 363.487 198.966 363.837 198.203 364.183 C 195.915 365.219 193.601 366.205 191.257 367.138 C 185.091 369.595 178.762 371.667 172.314 373.343 C 171.09 373.663 169.859 373.967 168.625 374.256 C 167.872 374.431 167.113 374.607 166.354 374.772 C 165.877 374.88 165.395 374.983 164.914 375.082 C 164.329 375.205 163.743 375.328 163.159 375.442 C 162.548 375.566 161.934 375.684 161.322 375.798 C 157.994 372.783 156.11 368.597 156.111 364.224 C 156.111 364.085 156.111 363.941 156.116 363.796 L 157.856 321.332 L 158.625 302.512 C 158.871 293.659 166.49 286.612 175.792 286.636 C 176.311 286.636 176.826 286.662 177.335 286.708 C 177.704 287.162 178.045 287.631 178.375 288.105 C 179.274 289.374 180.488 291.38 181.918 293.898 C 182.509 294.936 183.132 296.058 183.787 297.251 C 184.183 297.967 187.595 308.106 190.916 318.465 L 189.453 329.28 L 186.81 348.777 L 197.654 341.999 L 205.292 337.223 L 206.197 338.662 L 208.553 342.406 L 213.104 349.628 L 214.566 351.954 Z" fill="#3f3d56" style="" transform="matrix(1, 0, 0, 1, 5.684341886080802e-14, 0)"/>
  <path d="M 208.63 339.817 C 208.624 340.694 208.602 341.555 208.553 342.406 C 208.442 344.753 208.154 347.091 207.697 349.401 C 206.95 353.278 205.617 357.032 203.738 360.547 C 203.488 361.016 203.223 361.48 202.951 361.934 C 202.253 362.284 201.545 362.625 200.835 362.966 C 200.715 363.022 200.595 363.079 200.477 363.131 C 197.459 364.559 194.387 365.895 191.257 367.138 C 185.091 369.595 178.762 371.667 172.314 373.343 C 171.09 373.663 169.859 373.967 168.625 374.256 C 166.213 374.824 163.781 375.338 161.322 375.798 C 151.32 377.668 141.148 378.607 130.955 378.603 C 130.277 378.603 129.606 378.599 128.929 378.594 C 128.723 378.594 128.516 378.589 128.306 378.584 C 127.71 378.573 127.092 378.563 126.464 378.547 C 114.417 378.231 102.449 376.587 90.799 373.652 C 89.872 373.42 88.949 373.181 88.03 372.931 C 79.174 370.532 70.559 367.387 62.29 363.532 C 53.198 345.724 54.904 336.212 53.258 314.611 C 56.639 306.57 113.826 312.249 157.856 321.332 C 169.805 323.797 180.78 326.515 189.453 329.28 C 198.413 332.132 204.909 335.031 207.454 337.755 C 208.049 338.318 208.458 339.035 208.63 339.817 Z" fill="#2f2e41" style="" transform="matrix(1, 0, 0, 1, 5.684341886080802e-14, 0)"/>
  <path d="M 53.261 318.31 C 53.177 316.972 53.084 315.59 52.974 314.152 C 58.467 301.092 205.858 324.215 208.344 339.359 C 208.338 340.747 208.276 342.093 208.171 343.409 C 202.149 328.463 62.125 306.486 53.261 318.31 Z" opacity="0.2" style="" transform="matrix(1, 0, 0, 1, 5.684341886080802e-14, 0)"/>
</svg>